# xmcd
#
# Track frame offsets: 
#        150
#        12325
#        25862
#        38965
#        57773
#        71642
#        86999
#        99298
#        109935
#        121491
#        135441
#        151573
#        166347
#        180415
#        197267
#        211129
#        223303
#        238899
#        256149
#
# Disc length: 3591 seconds
#
# Revision: 0
# Processed by: cddbd v1.5.2PL0 Copyright (c) Steve Scherf et al.
# Submitted via: ExactAudioCopy v1.0b3
#
DISCID=fd0e0513
DTITLE=Dolly Parton - The Hits
DYEAR=2012
DGENRE=Easy Listening
TTITLE0=Jolene
TTITLE1=9 To 5
TTITLE2=Here You Come Again
TTITLE3=Islands In The Stream (with Kenny Rogers)
TTITLE4=Coat Of Many Colors
TTITLE5=Tennessee Homesick Blues
TTITLE6=The Bargain Store
TTITLE7=Love Is Like A Butterfly
TTITLE8=Why'd You Come In Here Lookin' Like That
TTITLE9=Two Doors Down
TTITLE10=Romeo
TTITLE11=The Seeker
TTITLE12=My Tennessee Mountain Home
TTITLE13=Single Women
TTITLE14=Joshua
TTITLE15=Touch Your Woman
TTITLE16=Rockin' Years
TTITLE17=Save The Last Dance For Me
TTITLE18=I Will Always Love You
EXTD=
EXTT0=
EXTT1=
EXTT2=
EXTT3=
EXTT4=
EXTT5=
EXTT6=
EXTT7=
EXTT8=
EXTT9=
EXTT10=
EXTT11=
EXTT12=
EXTT13=
EXTT14=
EXTT15=
EXTT16=
EXTT17=
EXTT18=
PLAYORDER=
